<svg xmlns="http://www.w3.org/2000/svg" width="800" height="800" viewBox="0 0 800 800">
  <defs>
    <linearGradient id="bg" x1="0" y1="0" x2="1" y2="1">
      <stop offset="0%" stop-color="#f5f0eb"/>
      <stop offset="100%" stop-color="#e8e0d8"/>
    </linearGradient>
  </defs>
  <rect width="800" height="800" fill="url(#bg)"/>
  <!-- Warm geometric composition -->
  <circle cx="520" cy="280" r="180" fill="#d4cbc2" opacity="0.5"/>
  <circle cx="360" cy="480" r="120" fill="#c4b8ac" opacity="0.4"/>
  <rect x="160" y="200" width="140" height="140" rx="24" fill="#b8aa9c" opacity="0.35" transform="rotate(12 230 270)"/>
  <rect x="480" y="460" width="100" height="100" rx="18" fill="#c8bdb0" opacity="0.4" transform="rotate(-8 530 510)"/>
  <!-- Subtle grid dots -->
  <g fill="#b0a496" opacity="0.2">
    <circle cx="100" cy="100" r="3"/>
    <circle cx="200" cy="100" r="3"/>
    <circle cx="300" cy="100" r="3"/>
    <circle cx="400" cy="100" r="3"/>
    <circle cx="500" cy="100" r="3"/>
    <circle cx="600" cy="100" r="3"/>
    <circle cx="700" cy="100" r="3"/>
    <circle cx="100" cy="700" r="3"/>
    <circle cx="200" cy="700" r="3"/>
    <circle cx="300" cy="700" r="3"/>
    <circle cx="400" cy="700" r="3"/>
    <circle cx="500" cy="700" r="3"/>
    <circle cx="600" cy="700" r="3"/>
    <circle cx="700" cy="700" r="3"/>
  </g>
</svg>
